<mxfile host="app.diagrams.net" modified="2022-04-06T10:13:05.505Z" agent="5.0 (Windows NT 10.0; WOW64) AppleWebKit/537.36 (KHTML, like Gecko) Chrome/100.0.4896.75 Safari/537.36" etag="HTshOIdbJz1c_aEq9in9" version="17.3.0" type="github">
  <diagram id="3AL0ttqAcDRqS0Fl6dhK" name="Page-1">
    <mxGraphModel dx="1422" dy="800" grid="1" gridSize="10" guides="1" tooltips="1" connect="1" arrows="1" fold="1" page="1" pageScale="1" pageWidth="827" pageHeight="1169" math="0" shadow="0">
      <root>
        <mxCell id="0" />
        <mxCell id="1" parent="0" />
        <mxCell id="3B3CyOlS2YxdY7rioncx-38" value="" style="rounded=1;whiteSpace=wrap;html=1;dashed=1;" vertex="1" parent="1">
          <mxGeometry x="811" y="371.57" width="409" height="68.43" as="geometry" />
        </mxCell>
        <mxCell id="3B3CyOlS2YxdY7rioncx-27" value="" style="rounded=1;whiteSpace=wrap;html=1;dashed=1;rotation=0;spacing=4;verticalAlign=middle;" vertex="1" parent="1">
          <mxGeometry x="280" y="190" width="475.5" height="460" as="geometry" />
        </mxCell>
        <mxCell id="3B3CyOlS2YxdY7rioncx-14" value="" style="rounded=1;whiteSpace=wrap;html=1;dashed=1;" vertex="1" parent="1">
          <mxGeometry x="825.5" y="110" width="350" height="207.5" as="geometry" />
        </mxCell>
        <mxCell id="3B3CyOlS2YxdY7rioncx-1" value="" style="rounded=1;whiteSpace=wrap;html=1;dashed=1;" vertex="1" parent="1">
          <mxGeometry x="825.5" y="506.25" width="350" height="207.5" as="geometry" />
        </mxCell>
        <mxCell id="3B3CyOlS2YxdY7rioncx-2" value="&lt;font color=&quot;#ff3333&quot; style=&quot;font-size: 16px&quot;&gt;排序&lt;br&gt;服务&lt;/font&gt;" style="rounded=0;whiteSpace=wrap;html=1;strokeWidth=2;" vertex="1" parent="1">
          <mxGeometry x="855.5" y="546.25" width="70" height="130" as="geometry" />
        </mxCell>
        <mxCell id="3B3CyOlS2YxdY7rioncx-4" value="&lt;font style=&quot;font-size: 15px&quot;&gt;rank 模型训练&lt;/font&gt;" style="rounded=0;whiteSpace=wrap;html=1;strokeWidth=2;" vertex="1" parent="1">
          <mxGeometry x="969.5" y="593.75" width="176" height="35" as="geometry" />
        </mxCell>
        <mxCell id="3B3CyOlS2YxdY7rioncx-6" value="&lt;font style=&quot;font-size: 15px&quot;&gt;数据流服务&lt;/font&gt;" style="rounded=0;whiteSpace=wrap;html=1;strokeWidth=2;" vertex="1" parent="1">
          <mxGeometry x="969.5" y="533.75" width="176" height="35" as="geometry" />
        </mxCell>
        <mxCell id="3B3CyOlS2YxdY7rioncx-7" value="&lt;font color=&quot;#ff3333&quot; style=&quot;font-size: 16px&quot;&gt;召回&lt;br&gt;服务&lt;/font&gt;" style="rounded=0;whiteSpace=wrap;html=1;strokeWidth=2;" vertex="1" parent="1">
          <mxGeometry x="855.5" y="148.75" width="70" height="130" as="geometry" />
        </mxCell>
        <mxCell id="3B3CyOlS2YxdY7rioncx-8" value="&lt;font style=&quot;font-size: 15px&quot;&gt;召回任务管理&lt;/font&gt;" style="rounded=0;whiteSpace=wrap;html=1;strokeWidth=2;" vertex="1" parent="1">
          <mxGeometry x="969.5" y="196.25" width="176" height="35" as="geometry" />
        </mxCell>
        <mxCell id="3B3CyOlS2YxdY7rioncx-10" value="&lt;font style=&quot;font-size: 15px&quot;&gt;离线 hive 数据平台&lt;/font&gt;" style="rounded=0;whiteSpace=wrap;html=1;strokeWidth=2;" vertex="1" parent="1">
          <mxGeometry x="969.5" y="136.25" width="176" height="35" as="geometry" />
        </mxCell>
        <mxCell id="3B3CyOlS2YxdY7rioncx-11" value="&lt;font style=&quot;font-size: 15px&quot;&gt;离线召回结果存储&lt;/font&gt;" style="rounded=0;whiteSpace=wrap;html=1;strokeWidth=2;" vertex="1" parent="1">
          <mxGeometry x="969.5" y="256.25" width="176" height="35" as="geometry" />
        </mxCell>
        <mxCell id="3B3CyOlS2YxdY7rioncx-12" value="&lt;font style=&quot;font-size: 15px&quot;&gt;模型部署&lt;/font&gt;" style="rounded=0;whiteSpace=wrap;html=1;strokeWidth=2;" vertex="1" parent="1">
          <mxGeometry x="969.5" y="653.75" width="176" height="35" as="geometry" />
        </mxCell>
        <mxCell id="3B3CyOlS2YxdY7rioncx-15" value="&lt;font color=&quot;#000000&quot;&gt;特征服务&lt;/font&gt;" style="rounded=0;whiteSpace=wrap;html=1;fontSize=16;fontColor=#FF3333;strokeWidth=2;" vertex="1" parent="1">
          <mxGeometry x="825.5" y="386.25" width="110" height="40" as="geometry" />
        </mxCell>
        <mxCell id="3B3CyOlS2YxdY7rioncx-16" value="&lt;font color=&quot;#000000&quot;&gt;特征服务&lt;/font&gt;" style="rounded=0;whiteSpace=wrap;html=1;fontSize=16;fontColor=#FF3333;strokeWidth=2;" vertex="1" parent="1">
          <mxGeometry x="959.5" y="386.25" width="110" height="40" as="geometry" />
        </mxCell>
        <mxCell id="3B3CyOlS2YxdY7rioncx-17" value="&lt;font color=&quot;#000000&quot;&gt;特征服务&lt;/font&gt;" style="rounded=0;whiteSpace=wrap;html=1;fontSize=16;fontColor=#FF3333;strokeWidth=2;" vertex="1" parent="1">
          <mxGeometry x="1095.5" y="386.25" width="110" height="40" as="geometry" />
        </mxCell>
        <mxCell id="3B3CyOlS2YxdY7rioncx-18" value="召回阶段 cs" style="rounded=0;whiteSpace=wrap;html=1;fontSize=15;fontColor=#000000;strokeWidth=2;" vertex="1" parent="1">
          <mxGeometry x="305.5" y="231.25" width="430" height="39.5" as="geometry" />
        </mxCell>
        <mxCell id="3B3CyOlS2YxdY7rioncx-23" value="频控服务 fc" style="rounded=0;whiteSpace=wrap;html=1;fontSize=15;fontColor=#000000;strokeWidth=2;" vertex="1" parent="1">
          <mxGeometry x="340.51" y="318.38" width="360" height="39.5" as="geometry" />
        </mxCell>
        <mxCell id="3B3CyOlS2YxdY7rioncx-24" value="粗排阶段 bs" style="rounded=0;whiteSpace=wrap;html=1;fontSize=15;fontColor=#000000;strokeWidth=2;" vertex="1" parent="1">
          <mxGeometry x="378" y="410" width="285" height="39.5" as="geometry" />
        </mxCell>
        <mxCell id="3B3CyOlS2YxdY7rioncx-25" value="精排阶段 as" style="rounded=0;whiteSpace=wrap;html=1;fontSize=15;fontColor=#000000;strokeWidth=2;" vertex="1" parent="1">
          <mxGeometry x="409.26" y="500" width="222.5" height="39.5" as="geometry" />
        </mxCell>
        <mxCell id="3B3CyOlS2YxdY7rioncx-26" value="机制策略 auction" style="rounded=0;whiteSpace=wrap;html=1;fontSize=15;fontColor=#000000;strokeWidth=2;" vertex="1" parent="1">
          <mxGeometry x="434.88" y="590.25" width="171.25" height="39.5" as="geometry" />
        </mxCell>
        <mxCell id="3B3CyOlS2YxdY7rioncx-28" value="" style="endArrow=classic;html=1;rounded=0;fontSize=15;fontColor=#000000;exitX=0.5;exitY=1;exitDx=0;exitDy=0;strokeWidth=2;" edge="1" parent="1" source="3B3CyOlS2YxdY7rioncx-18" target="3B3CyOlS2YxdY7rioncx-23">
          <mxGeometry width="50" height="50" relative="1" as="geometry">
            <mxPoint x="795.5" y="400" as="sourcePoint" />
            <mxPoint x="845.5" y="350" as="targetPoint" />
          </mxGeometry>
        </mxCell>
        <mxCell id="3B3CyOlS2YxdY7rioncx-29" value="" style="endArrow=classic;html=1;rounded=0;fontSize=15;fontColor=#000000;strokeWidth=2;exitX=0.5;exitY=1;exitDx=0;exitDy=0;entryX=0.5;entryY=0;entryDx=0;entryDy=0;" edge="1" parent="1" source="3B3CyOlS2YxdY7rioncx-23" target="3B3CyOlS2YxdY7rioncx-24">
          <mxGeometry width="50" height="50" relative="1" as="geometry">
            <mxPoint x="495.5" y="410" as="sourcePoint" />
            <mxPoint x="545.5" y="360" as="targetPoint" />
          </mxGeometry>
        </mxCell>
        <mxCell id="3B3CyOlS2YxdY7rioncx-30" value="" style="endArrow=classic;html=1;rounded=0;fontSize=15;fontColor=#000000;strokeWidth=2;exitX=0.5;exitY=1;exitDx=0;exitDy=0;entryX=0.5;entryY=0;entryDx=0;entryDy=0;" edge="1" parent="1" source="3B3CyOlS2YxdY7rioncx-24" target="3B3CyOlS2YxdY7rioncx-25">
          <mxGeometry width="50" height="50" relative="1" as="geometry">
            <mxPoint x="555.5" y="470" as="sourcePoint" />
            <mxPoint x="555.5" y="480" as="targetPoint" />
          </mxGeometry>
        </mxCell>
        <mxCell id="3B3CyOlS2YxdY7rioncx-31" value="" style="endArrow=classic;html=1;rounded=0;fontSize=15;fontColor=#000000;strokeWidth=2;exitX=0.5;exitY=1;exitDx=0;exitDy=0;" edge="1" parent="1" source="3B3CyOlS2YxdY7rioncx-25" target="3B3CyOlS2YxdY7rioncx-26">
          <mxGeometry width="50" height="50" relative="1" as="geometry">
            <mxPoint x="631.77" y="546.2500000000001" as="sourcePoint" />
            <mxPoint x="631.76" y="598.37" as="targetPoint" />
          </mxGeometry>
        </mxCell>
        <mxCell id="3B3CyOlS2YxdY7rioncx-32" value="&lt;font size=&quot;1&quot;&gt;&lt;b style=&quot;font-size: 20px&quot;&gt;趣头条广告系统架构&lt;/b&gt;&lt;/font&gt;" style="text;html=1;strokeColor=none;fillColor=none;align=center;verticalAlign=middle;whiteSpace=wrap;rounded=0;fontSize=15;fontColor=#000000;" vertex="1" parent="1">
          <mxGeometry x="360" y="148.75" width="330" height="30" as="geometry" />
        </mxCell>
        <mxCell id="3B3CyOlS2YxdY7rioncx-33" value="" style="shape=flexArrow;endArrow=classic;html=1;rounded=0;fontSize=20;fontColor=#000000;strokeWidth=2;" edge="1" parent="1">
          <mxGeometry width="50" height="50" relative="1" as="geometry">
            <mxPoint x="230" y="240" as="sourcePoint" />
            <mxPoint x="230" y="610" as="targetPoint" />
          </mxGeometry>
        </mxCell>
        <mxCell id="3B3CyOlS2YxdY7rioncx-34" value="" style="shape=trapezoid;perimeter=trapezoidPerimeter;whiteSpace=wrap;html=1;fixedSize=1;fontSize=20;fontColor=#000000;strokeWidth=2;rotation=-180;size=30;" vertex="1" parent="1">
          <mxGeometry x="120" y="361.88" width="80" height="88.75" as="geometry" />
        </mxCell>
        <mxCell id="3B3CyOlS2YxdY7rioncx-35" value="" style="endArrow=classic;html=1;rounded=0;fontSize=20;fontColor=#000000;strokeWidth=2;entryX=0;entryY=0.5;entryDx=0;entryDy=0;exitX=1;exitY=0.5;exitDx=0;exitDy=0;" edge="1" parent="1" source="3B3CyOlS2YxdY7rioncx-24" target="3B3CyOlS2YxdY7rioncx-14">
          <mxGeometry width="50" height="50" relative="1" as="geometry">
            <mxPoint x="790" y="430" as="sourcePoint" />
            <mxPoint x="630" y="680" as="targetPoint" />
          </mxGeometry>
        </mxCell>
        <mxCell id="3B3CyOlS2YxdY7rioncx-36" value="" style="endArrow=classic;html=1;rounded=0;fontSize=20;fontColor=#000000;strokeWidth=2;exitX=1;exitY=0.5;exitDx=0;exitDy=0;entryX=0;entryY=0.5;entryDx=0;entryDy=0;" edge="1" parent="1" source="3B3CyOlS2YxdY7rioncx-24" target="3B3CyOlS2YxdY7rioncx-38">
          <mxGeometry width="50" height="50" relative="1" as="geometry">
            <mxPoint x="760" y="500" as="sourcePoint" />
            <mxPoint x="790" y="420" as="targetPoint" />
          </mxGeometry>
        </mxCell>
        <mxCell id="3B3CyOlS2YxdY7rioncx-37" value="" style="endArrow=classic;html=1;rounded=0;fontSize=20;fontColor=#000000;strokeWidth=2;exitX=1;exitY=0.5;exitDx=0;exitDy=0;entryX=0;entryY=0.5;entryDx=0;entryDy=0;" edge="1" parent="1" source="3B3CyOlS2YxdY7rioncx-25" target="3B3CyOlS2YxdY7rioncx-38">
          <mxGeometry width="50" height="50" relative="1" as="geometry">
            <mxPoint x="730" y="540" as="sourcePoint" />
            <mxPoint x="790" y="460" as="targetPoint" />
          </mxGeometry>
        </mxCell>
        <mxCell id="3B3CyOlS2YxdY7rioncx-39" value="" style="endArrow=classic;html=1;rounded=0;fontSize=20;fontColor=#000000;strokeWidth=2;exitX=0.5;exitY=1;exitDx=0;exitDy=0;entryX=0;entryY=0.5;entryDx=0;entryDy=0;" edge="1" parent="1" source="3B3CyOlS2YxdY7rioncx-15" target="3B3CyOlS2YxdY7rioncx-6">
          <mxGeometry width="50" height="50" relative="1" as="geometry">
            <mxPoint x="1210" y="370" as="sourcePoint" />
            <mxPoint x="1260" y="320" as="targetPoint" />
          </mxGeometry>
        </mxCell>
        <mxCell id="3B3CyOlS2YxdY7rioncx-40" value="" style="endArrow=classic;html=1;rounded=0;fontSize=20;fontColor=#000000;strokeWidth=2;exitX=0.45;exitY=-0.031;exitDx=0;exitDy=0;exitPerimeter=0;entryX=0.5;entryY=1;entryDx=0;entryDy=0;" edge="1" parent="1" source="3B3CyOlS2YxdY7rioncx-15" target="3B3CyOlS2YxdY7rioncx-7">
          <mxGeometry width="50" height="50" relative="1" as="geometry">
            <mxPoint x="1300" y="380" as="sourcePoint" />
            <mxPoint x="1350" y="330" as="targetPoint" />
          </mxGeometry>
        </mxCell>
        <mxCell id="3B3CyOlS2YxdY7rioncx-41" value="" style="endArrow=classic;html=1;rounded=0;fontSize=20;fontColor=#000000;strokeWidth=2;exitX=0.5;exitY=0;exitDx=0;exitDy=0;entryX=0.5;entryY=1;entryDx=0;entryDy=0;" edge="1" parent="1" source="3B3CyOlS2YxdY7rioncx-16" target="3B3CyOlS2YxdY7rioncx-7">
          <mxGeometry width="50" height="50" relative="1" as="geometry">
            <mxPoint x="1350" y="380" as="sourcePoint" />
            <mxPoint x="1400" y="330" as="targetPoint" />
          </mxGeometry>
        </mxCell>
      </root>
    </mxGraphModel>
  </diagram>
</mxfile>
